<svg width="240" height="324" viewBox="0 0 240 324" fill="none" xmlns="http://www.w3.org/2000/svg">
  <path fill-rule="evenodd" clip-rule="evenodd" d="M170.479 181.122C168.644 180.468 166.876 179.712 165.265 178.601C160.621 175.142 157.592 169.938 154.731 165.007C150.7 157.835 147.829 150.193 145.844 142.221C144.991 138.796 144.702 134.824 142.764 131.788C138.371 125.429 125.49 126.253 118.651 127.369C114.07 128.18 113.124 133.308 112.083 137.102C111.217 140.255 110.65 143.443 110.174 146.674C109.042 147.419 107.763 148.024 106.545 148.551C93.2647 152.625 90.9306 160.177 85.8583 171.843C77.2912 188.8 54.0444 195.439 50.5329 215.506C48.2704 228.755 54.7042 241.219 61.3373 252.233C67.5148 264.263 76.139 270.037 89.8733 267.195C102.755 264.304 115.136 259.468 127.791 255.731C133.92 254.224 140.04 250.302 146.488 251.669C159.773 254.654 173.424 256.058 187.039 255.67C206.155 256.444 206.152 238.089 204.19 223.875C202.816 201.755 191.663 187.551 170.479 181.122Z" fill="white"/>
  <path fill-rule="evenodd" clip-rule="evenodd" d="M171.757 213.13C173.354 214.187 174.698 215.789 175.776 217.475C171.274 217.007 166.779 216.467 162.294 215.852C162.881 215.476 163.474 215.109 164.08 214.763C166.292 213.516 169.288 211.497 171.757 213.13ZM96.95 226.445C96.125 226.122 95.8058 224.863 95.4842 224.142C94.4761 221.88 93.556 219.579 92.5987 217.295C96.2334 216.259 99.7679 215.109 103.533 214.556C107.582 213.963 111.69 213.819 115.776 213.953C124.052 214.223 132.251 215.576 140.388 217.027C148.515 218.476 156.642 219.868 164.826 220.961C172.845 222.031 180.888 222.815 188.947 223.503C190.512 223.636 193.123 224.2 194.382 222.967C195.379 221.991 195.411 220.19 194.164 219.397C193.387 218.902 192.261 218.895 191.373 218.781C190.255 218.637 189.133 218.541 188.008 218.466C187.55 218.436 187.092 218.408 186.633 218.38C190.313 216.992 194.156 216.236 198.145 216.447C198.371 217.818 199.387 219.228 199.943 220.359C200.915 222.333 201.672 224.331 202.169 226.477C203.208 230.964 203.253 235.62 202.96 240.196C202.69 244.011 202.111 248.232 199.12 250.934C196.855 252.98 193.659 253.737 190.694 253.975C187.249 254.252 183.75 253.957 180.333 253.495C175.54 252.846 170.726 251.989 166.027 250.84C156.928 248.615 148.206 245.075 140.159 240.274C136.235 237.934 132.49 235.3 128.512 233.049C124.458 230.754 120.145 228.974 115.616 227.868C110.547 226.631 105.249 226.103 100.039 226.408C99.1354 226.461 97.8293 226.789 96.95 226.445ZM91.0762 224.148C91.6088 225.877 92.0163 227.851 93.1531 229.304C94.2792 230.744 95.978 231.252 97.7379 231.38C99.8598 231.534 102.007 231.435 104.133 231.514C108.495 231.676 112.797 232.385 116.966 233.685C120.852 234.897 124.459 236.787 127.934 238.883C131.146 240.822 134.265 242.904 137.479 244.837C136.624 245.229 135.778 245.653 134.928 246.023C133.144 246.798 131.35 247.545 129.547 248.274C125.993 249.711 122.423 251.114 118.817 252.416C111.545 255.043 104.154 257.338 96.6746 259.293C93.1071 260.226 89.4889 261.315 85.7826 261.47C82.4962 261.607 79.452 260.678 76.8015 258.723C71.3038 254.669 66.93 248.817 63.3942 243.044C61.2936 239.614 59.4604 236.011 57.9441 232.285C57.1772 230.401 56.4817 228.488 55.8557 226.552C55.5621 225.643 55.2836 224.729 55.02 223.811C54.904 223.408 54.7929 223.003 54.6828 222.597C60.3044 220.881 65.9928 219.332 71.8147 218.472C74.9231 218.013 78.0729 217.78 81.2153 217.814C82.775 217.831 84.334 217.915 85.8855 218.076C86.7207 218.163 87.5524 218.274 88.3806 218.412C88.7229 218.469 89.0746 218.553 89.4274 218.615C89.9664 220.463 90.5098 222.309 91.0762 224.148ZM207.282 216.803C207.585 216.19 207.713 215.586 207.822 214.919C207.905 214.41 208.124 213.693 207.932 213.032C207.716 212.292 207.129 211.629 206.708 210.998C206.242 210.3 205.777 209.602 205.313 208.903C204.384 207.506 203.457 206.107 202.532 204.708C198.753 198.993 195 193.261 191.241 187.533C187.905 182.45 184.625 177.321 181.188 172.306C178.248 168.018 175.044 163.8 171.021 160.465C165.934 156.248 159.876 154.262 153.549 152.712C152.858 151.994 151.935 151.602 150.948 151.682C149.554 150.1 148.447 148.996 147.944 146.984C147.704 146.021 147.779 143.314 146.841 142.744C145.727 142.067 145.146 142.963 144.838 143.973C143.81 147.353 144.99 151.897 147.705 155.282C146.561 159.236 145.045 164.857 142.339 168.025C139.443 171.417 135.436 172.473 131.114 172.543C122.87 172.675 114.636 169.61 108.348 164.299C106.437 162.685 104.662 160.881 103.057 158.964C101.852 157.525 100.427 155.305 99.4851 153.627C99.4851 152.973 98.7132 152.289 106.571 151.761C114.429 151.232 115.025 140.469 115.199 139.004C115.341 137.815 115.945 135.968 115.107 134.998C114.752 134.586 114.022 134.52 113.571 134.8C112.721 135.328 112.442 136.679 112.174 137.596C111.8 138.88 110.576 146.854 108.257 147.777C107.171 148.209 105.926 148.217 104.778 148.297C103.36 148.396 101.938 148.469 100.526 148.634C100.005 148.695 99.4365 148.863 98.9225 148.868C98.588 148.872 98.243 148.709 97.9198 148.595C96.8288 148.209 95.7387 148.498 94.6147 148.65C84.6775 149.986 74.4456 153.035 65.9696 158.521C58.4987 163.357 53.2354 170.311 49.7624 178.442C46.2188 186.74 44.1877 195.714 42.4855 204.547C41.9153 207.507 41.4173 210.481 40.9895 213.464C40.5761 216.347 40.0589 219.295 39.9351 222.207C39.8861 223.359 40.1613 224.43 40.5849 225.482C41.062 226.667 42.1895 227.134 43.271 227.687C45.645 228.902 48.1494 229.844 50.7296 230.511C52.3059 233.38 53.6324 236.361 54.6985 239.454C54.303 240.238 54.2947 241.409 54.2187 242.171C54.03 244.068 53.9493 245.975 53.9324 247.881C53.8984 251.701 54.128 255.518 54.308 259.332C54.4906 263.2 55.0973 278.464 55.1962 280.328C55.2731 281.776 55.1696 283.801 55.932 285.087C57.1037 287.062 59.9956 286.996 61.335 285.394C94.6147 292.551 157.171 290.395 182.366 286.794C185.644 286.326 184.615 286.845 185.448 286.017C186.074 285.395 186.606 284.329 186.779 283.473C187.01 282.33 186.637 281.296 185.983 280.371C185.295 279.399 185.17 277.824 184.915 276.668C184.311 273.935 184.01 261.932 183.728 260.602C183.64 260.188 183.555 259.75 183.453 259.312C188.074 259.749 192.889 259.749 197.286 258.203C199.779 257.326 202.104 255.949 203.894 253.982C206.062 251.601 207.267 248.603 207.887 245.474C208.687 241.439 208.857 237.26 208.7 233.158C208.482 228.311 207.678 223.395 205.683 218.944C206.34 218.334 206.89 217.599 207.282 216.803Z" fill="black"/>
  <path fill-rule="evenodd" clip-rule="evenodd" d="M139.312 145.719C134.623 145.747 130.637 144.416 127.596 142.214C123.801 140.86 119.224 138.772 116.444 136.58C115.359 136.857 114.062 135.705 113.232 135.096C108.072 131.242 104.021 125.599 102.821 119.947C100.968 122.287 98.3317 122.384 95.806 121.221C90.5116 118.218 90.7096 111.893 92.6156 107.168C88.6085 98.1731 85.8314 74.4287 91.9482 64.8459C93.1993 63.4121 95.0355 62.5544 96.3574 61.0841C97.5337 59.7999 98.6526 58.4864 100.021 57.4702C104.197 54.2906 111.389 52.5977 115.893 51.8016C134.692 47.7356 149.136 55.0437 166.164 61.2081C165.184 63.6598 163.829 65.8957 162.275 67.9804C166.502 69.559 164.561 73.1082 161.281 74.9074L159.328 73.958C162.372 84.8523 169.377 111.944 166.355 120.643C163.944 134.216 153.367 145.818 139.312 145.719Z" fill="white"/>
  <path fill-rule="evenodd" clip-rule="evenodd" d="M142.028 146.888C135.939 147.513 128.706 146.074 124.647 141.125C124.525 140.977 124.472 140.81 124.469 140.648C124.466 140.468 124.526 140.294 124.63 140.158C124.74 140.016 124.896 139.917 125.075 139.885C125.226 139.858 125.398 139.875 125.575 139.975L125.948 140.182C128.721 141.714 131.599 143.02 134.741 143.579C137.976 144.155 141.269 144.091 144.475 143.36C150.315 142.029 155.041 138.633 158.52 134.156C162.401 129.16 164.732 122.818 165.327 116.475C166.047 108.789 164.376 101.149 162.648 93.7064C160.833 85.8862 158.848 78.1059 156.543 70.4159C156.473 70.1844 156.454 69.9678 156.474 69.7682C155.794 69.5017 155.071 69.5757 154.35 69.819C153.034 70.2635 151.723 71.2659 150.63 72.0934C150.234 72.3931 149.865 72.6717 149.534 72.8983C148.178 73.8265 146.696 74.4943 145.039 74.5993C143.315 74.7083 141.625 74.1724 140.059 73.5017C139.264 73.1609 138.482 72.8075 137.702 72.4554C135.483 71.4529 133.29 70.4604 130.893 69.8153C127.681 68.9507 124.366 68.5248 121.04 68.5553C115.104 68.6096 109.15 70.1381 105.513 75.1602C104.039 77.1946 103.078 79.5327 103.827 82.0435C104.235 83.4093 105.004 84.6492 105.844 85.7896L106.132 86.178C106.592 86.8039 106.993 87.4274 107.113 88.0912C107.214 88.6473 107.135 89.2355 106.738 89.8803C106.489 90.2862 106.171 90.6501 105.851 91.0129C105.62 91.2746 105.389 91.5358 105.19 91.817C104.789 92.384 104.434 92.9947 104.156 93.6316C103.61 94.8783 103.379 96.2194 103.331 97.572C103.272 99.2038 103.502 100.8 103.729 102.399C103.89 103.532 104.051 104.667 104.116 105.815C104.128 106.016 104.066 106.165 103.981 106.276C103.876 106.411 103.722 106.496 103.548 106.52C103.495 106.527 103.44 106.528 103.385 106.523C103.412 106.634 103.436 106.744 103.457 106.856C103.347 106.714 103.23 106.577 103.106 106.444C103.098 106.44 103.09 106.436 103.082 106.431C102.955 106.361 102.847 106.254 102.779 106.117C102.603 105.954 102.418 105.799 102.223 105.654C101.21 104.898 100.028 104.45 98.8413 104.435C97.6976 104.421 96.5511 104.81 95.6695 105.633C93.9174 107.269 93.4042 109.938 93.3858 112.23C93.3673 114.57 93.9085 117.378 95.9477 118.83C96.7657 119.413 97.7647 119.763 98.7711 119.773C99.6054 119.782 100.404 119.486 101.19 119.205C101.432 119.118 101.673 119.032 101.914 118.954C102.187 118.865 102.437 118.87 102.654 118.935C102.898 119.009 103.106 119.16 103.261 119.362C103.416 119.563 103.517 119.815 103.549 120.079C103.579 120.335 103.544 120.6 103.436 120.839C103.409 120.899 103.38 120.958 103.351 121.015L103.799 121.753C105.516 124.57 107.264 127.336 109.555 129.758C110.87 131.148 112.264 132.46 113.794 133.608L114.014 133.772C114.146 133.869 114.292 133.988 114.449 134.116C114.895 134.481 115.429 134.971 115.928 134.99C116.076 134.996 116.206 134.977 116.323 134.962C116.607 134.924 116.846 134.913 117.08 135.009C117.269 135.086 117.464 135.23 117.665 135.526C117.801 135.727 117.871 135.979 117.871 136.234C117.871 136.491 117.8 136.747 117.674 136.95C117.415 137.37 117.1 137.63 116.759 137.778C116.379 137.943 115.959 137.968 115.522 137.887C114.446 137.686 113.255 136.794 112.498 136.213L112.351 136.1C110.672 134.819 109.08 133.401 107.681 131.815C105.298 129.115 103.158 125.933 102.059 122.456C101.284 122.965 100.327 123.207 99.3266 123.245C97.8686 123.3 96.3255 122.925 95.1884 122.385C92.6824 121.197 91.1603 118.948 90.4469 116.362C89.6185 113.359 89.8878 109.907 90.9365 107.209C90.9669 107.131 90.9986 107.053 91.0312 106.974C87.8027 98.7907 86.81 89.7041 87.0865 80.9715C87.2158 76.8839 87.4941 72.5953 88.4581 68.6088C88.8901 66.822 89.6408 65.1204 90.8394 63.7137C91.5228 62.9115 92.3613 62.287 93.2036 61.6643C93.9332 61.1249 94.6655 60.5867 95.2818 59.9132L95.5731 59.5934C95.6363 59.5238 95.6993 59.4544 95.7622 59.385C96.8264 58.2117 97.8624 57.0731 99.1538 56.1108C100.651 54.9951 102.304 54.1218 104.021 53.3965C107.721 51.8346 111.703 50.8981 115.641 50.1736C124.163 48.6064 132.911 48.5291 141.328 50.732C145.242 51.7561 149.04 53.1579 152.831 54.558C153.183 54.688 153.535 54.8179 153.887 54.9476C156.834 56.0329 159.782 57.1136 162.73 58.1943C164.1 58.6966 165.47 59.1988 166.84 59.7016C167.137 59.8107 167.428 60.0457 167.594 60.3378C167.756 60.6227 167.804 60.9549 167.673 61.2858C166.833 63.4165 165.772 65.4154 164.481 67.2821C164.93 67.5874 165.311 67.9934 165.6 68.4686C165.966 69.0696 166.182 69.7811 166.197 70.5359C166.246 73.0639 163.946 74.7776 162.038 76.0171C161.86 76.1327 161.684 76.2009 161.514 76.2323C163.363 83.3035 165.133 90.3986 166.636 97.55L166.74 98.0457C168.289 105.53 169.288 113.168 167.823 120.752C166.562 127.282 163.631 133.585 159.052 138.45C154.565 143.217 148.543 146.219 142.028 146.888ZM101.935 103.834C101.138 101.303 100.716 98.5489 101.021 95.9832C101.213 94.3705 101.697 92.8179 102.487 91.3964C102.939 90.5822 103.49 89.8285 104.091 89.1187L104.298 88.8803C104.403 88.7585 104.508 88.6466 104.54 88.5063C104.559 88.4248 104.54 88.3356 104.49 88.2291C104.38 87.9931 104.176 87.7657 103.985 87.5437C103.864 87.4027 103.746 87.2642 103.646 87.1295C101.899 84.7633 100.596 81.9462 101.019 78.9456C101.432 76.0181 103.35 73.2892 105.392 71.2327C109.888 66.7042 116.858 65.6636 122.964 65.9134C126.519 66.0587 130.068 66.6854 133.453 67.7801C135.122 68.3201 136.754 68.9776 138.34 69.7313L138.691 69.9C138.881 69.9918 139.07 70.0847 139.259 70.1776C140.499 70.7858 141.744 71.3999 143.089 71.7306C145.718 72.3762 147.5 71.0165 149.374 69.6451C150.016 69.1752 150.668 68.6987 151.361 68.2806L151.504 68.1962C152.754 67.4712 154.25 66.9832 155.686 67.0051C156.934 67.0241 158.138 67.4227 159.118 68.3646C159.319 68.5581 159.435 68.7693 159.489 68.9794C159.598 69.1315 159.685 69.3129 159.742 69.5271C160.094 70.8451 160.443 72.1639 160.791 73.4832L161.076 73.2996C161.92 72.7513 162.837 72.1247 163.252 71.2075C163.411 70.8544 163.389 70.2663 163.188 69.8338C163.117 69.6827 163.025 69.5484 162.896 69.4645C162.803 69.4035 162.69 69.3749 162.56 69.3854C162.242 69.4264 161.95 69.3799 161.702 69.2752C161.416 69.1545 161.189 68.9558 161.041 68.7164C160.89 68.4713 160.821 68.1832 160.858 67.8843C160.889 67.6273 161 67.359 161.219 67.1068C162.658 65.4469 163.871 63.6159 164.792 61.6285L158.698 59.3729C156.525 58.569 154.351 57.7662 152.177 56.9664L150.986 56.5289C147.033 55.0781 143.056 53.6604 138.945 52.7263C130.773 50.8703 122.252 51.3065 114.104 53.0536L113.611 53.16C110.192 53.906 106.726 54.8084 103.588 56.3772C102.047 57.1471 100.583 58.0834 99.3253 59.2663C98.7699 59.7887 98.2678 60.3606 97.7655 60.9318C97.0616 61.7323 96.3569 62.5306 95.52 63.2048L94.7431 63.8272C93.5874 64.7588 92.545 65.6664 91.8928 67.1112C91.211 68.6217 90.8855 70.2904 90.62 71.9162C89.9503 76.0118 89.6859 80.173 89.7111 84.3216C89.7538 91.2873 90.8116 98.1111 92.1481 104.911C93.2203 103.376 94.7265 102.186 96.6597 101.932C97.9201 101.767 99.1696 102.002 100.253 102.559C100.879 102.881 101.45 103.311 101.935 103.834ZM99.9102 112.105C98.4985 111.558 97.0163 111.379 95.5228 111.64C95.3663 111.668 95.2171 111.635 95.0916 111.562C94.9645 111.488 94.8643 111.371 94.8099 111.242C94.747 111.093 94.7438 110.932 94.7993 110.788C94.8474 110.664 94.9392 110.543 95.108 110.462C96.7252 109.69 98.5228 109.349 100.307 109.592L100.483 109.617C101.395 109.752 102.678 110.037 103.64 110.598C104.396 111.038 104.949 111.645 105.086 112.438C105.158 112.852 105.056 113.283 104.817 113.596C104.587 113.898 104.235 114.1 103.78 114.087C102.976 114.064 102.5 113.724 101.928 113.284C101.858 113.231 101.787 113.176 101.713 113.121C101.16 112.707 100.555 112.355 99.9102 112.105Z" fill="black"/>
  <path fill-rule="evenodd" clip-rule="evenodd" d="M131.904 116.766C135.526 116.326 139.036 117.435 142.577 117.995C144.446 118.29 146.318 118.51 148.209 118.592C148.59 118.608 148.97 118.618 149.351 118.626C149.387 118.291 149.574 117.983 149.981 117.798C150.814 117.421 151.481 117.25 152.395 117.287C153.233 117.32 154.073 117.406 154.897 117.557C156.395 117.831 157.899 118.455 158.994 119.537C161.528 122.042 161.143 126.066 159.184 128.795C155.138 134.433 147.753 134.695 141.428 134.621L140.844 134.614C135.085 134.531 126.846 135.39 124.23 128.836C123.267 126.425 123.401 123.631 124.579 121.319C125.984 118.562 128.942 117.126 131.904 116.766ZM149.893 126.154L149.842 126.156C147.187 126.258 144.532 126.33 141.875 126.377C141.955 127.06 142.036 127.742 142.129 128.424C142.201 128.959 142.279 129.495 142.36 130.029C142.395 130.256 142.521 130.607 142.485 130.832L142.472 130.92C142.609 130.982 142.733 131.081 142.825 131.226C142.857 131.276 142.88 131.326 142.903 131.376C144.966 131.392 147.185 131.352 149.288 130.977L149.292 130.931C149.33 130.663 149.442 130.482 149.591 130.358C149.738 129.501 149.725 128.588 149.782 127.738C149.818 127.209 149.856 126.682 149.893 126.154ZM139.846 126.413C137.932 126.446 136.018 126.471 134.104 126.448L133.236 126.434C133.419 127.419 133.619 128.4 133.785 129.391C133.958 130.424 133.049 131.081 132.262 131.054C132.351 131.069 132.439 131.084 132.527 131.096C134.985 131.444 137.536 131.351 140.03 131.349C139.896 130.565 139.95 129.681 139.93 129.027L139.926 128.926C139.888 128.088 139.861 127.251 139.846 126.413ZM126.846 126.233C126.913 126.745 127.042 127.246 127.235 127.712C128.052 129.683 129.925 130.603 131.907 130.99C131.563 130.871 131.29 130.586 131.221 130.097C131.049 128.882 130.987 127.646 130.983 126.412C129.602 126.399 128.211 126.37 126.846 126.233ZM157.095 125.812C156.112 126.044 154.97 125.938 154.005 125.982C153.101 126.023 152.197 126.058 151.293 126.095C151.336 126.712 151.377 127.329 151.422 127.946C151.481 128.743 151.486 129.586 151.639 130.38C153.458 129.759 155.087 128.763 156.31 127.171C156.615 126.774 156.888 126.308 157.095 125.812ZM131.489 119.999C129.852 120.387 128.303 121.206 127.47 122.704C126.976 123.594 126.759 124.647 126.801 125.686C128.184 125.525 129.591 125.464 130.992 125.413C130.996 125.161 131.002 124.909 131.01 124.657L131.031 124.013C131.069 122.783 131.089 121.24 131.489 119.999ZM139.961 120.149L139.24 120.068C137.239 119.84 135.238 119.601 133.237 119.738C132.947 119.758 132.653 119.79 132.359 119.833C132.712 121.11 132.683 122.61 132.83 123.874C132.888 124.363 132.96 124.847 133.04 125.33L133.387 125.314C135.534 125.198 137.684 125.126 139.833 125.041C139.833 124.637 139.835 124.233 139.842 123.829L139.85 123.425C139.874 122.393 139.807 121.23 139.961 120.149ZM150.011 119.985C147.915 120.324 145.748 120.396 143.689 120.398C142.867 120.399 142.045 120.349 141.224 120.276C141.277 120.714 141.305 121.156 141.345 121.588C141.426 122.46 141.519 123.331 141.62 124.2L141.71 124.961C144.351 124.842 146.993 124.712 149.634 124.578L150.007 124.558L150.111 123.095C150.182 122.12 150.26 121.145 150.371 120.174L150.288 120.144C150.191 120.104 150.098 120.049 150.011 119.985ZM150.921 120.349C151.037 121.728 151.1 123.113 151.185 124.494L152.926 124.401C153.217 124.385 153.507 124.369 153.797 124.352C154.925 124.287 156.375 123.945 157.49 124.264C157.576 123.25 157.286 122.262 156.371 121.58C154.764 120.383 152.718 120.809 150.921 120.349ZM144.973 108.02C147.565 106.534 154.07 105.016 154.482 109.684C154.672 111.832 153.076 113.612 151.212 114.406L151.142 114.435C149.393 115.154 146.295 115.966 144.782 114.407C143.523 113.109 145.193 110.782 146.757 111.846C147.561 112.392 149.254 111.989 150.151 111.729L150.207 111.713C151.176 111.428 152.466 110.517 152.066 109.325C151.712 108.27 150.204 108.077 149.26 108.043C147.851 107.992 146.479 108.319 145.083 108.426C144.861 108.443 144.793 108.122 144.973 108.02ZM155.712 100.514C159.23 100.349 161.419 104.193 160.61 107.342C160.47 107.886 159.863 108.419 159.276 108.358L159.129 108.344C159.053 108.337 158.978 108.328 158.909 108.309C158.352 108.154 157.853 107.575 157.893 106.974L157.904 106.799C157.986 105.311 157.825 103.597 156.057 103.237C154.559 102.931 153.722 104.375 153.704 105.703C153.701 105.939 153.436 106.104 153.227 105.977C152.144 105.317 151.956 104.005 152.37 102.875C152.894 101.443 154.207 100.584 155.712 100.514ZM129.599 101.338C132.16 100.484 134.922 101.849 136.162 104.114C136.597 104.24 137.032 104.576 136.971 105.089C136.884 105.828 136.753 106.294 136.24 106.854C135.439 107.731 133.939 107.282 133.606 106.203L133.592 106.155C133.214 104.76 131.679 103.84 130.281 104.328C128.648 104.898 128.696 106.624 127.55 107.629C127.416 107.747 127.254 107.766 127.093 107.688C125.876 107.1 126.095 105.329 126.529 104.316C127.097 102.987 128.203 101.804 129.599 101.338ZM126.111 93.5592C128.186 91.4411 133.597 89.3914 135.017 93.3029C135.287 94.0479 134.711 95.0524 133.936 95.2069C132.666 95.4597 131.54 94.9083 130.279 95.0072C129.258 95.0877 128.193 95.429 127.376 96.0618C125.115 97.8143 124.618 100.779 123.043 103.009C122.966 103.118 122.817 103.072 122.803 102.944C122.444 99.6966 123.838 95.879 126.111 93.5592ZM153.173 91.4741C154.55 90.9875 156.11 91.0292 157.494 91.4607C158.888 91.8957 160.168 92.7217 161.155 93.8008C161.602 94.2907 162.016 94.8314 162.348 95.4069C162.525 95.7118 162.71 96.3419 162.911 96.717C163.995 97.3436 164.459 98.7713 163.488 99.787L163.444 99.8315L163.314 99.9604C162.792 100.477 162.005 100.701 161.292 100.495C159.698 100.033 159.504 98.7769 158.952 97.4432C158.587 96.5623 157.963 95.7829 157.205 95.2103C155.415 93.8577 152.48 93.4267 150.325 94.0642C150.21 94.0982 150.075 93.9519 150.157 93.8458C150.566 93.3166 150.801 92.8823 151.348 92.4554C151.903 92.0221 152.508 91.7091 153.173 91.4741Z" fill="black"/>
</svg>
