<svg width="240" height="300" viewBox="0 0 240 324" fill="none" xmlns="http://www.w3.org/2000/svg">
  <path fill-rule="evenodd" clip-rule="evenodd" d="M198.116 286.313C202.199 286.116 200.557 278.971 200.264 276.347C197.031 266.764 197.791 256.308 196.52 246.263C195.728 236.886 194.71 227.538 193.854 218.168C192.173 199.147 180.099 160.427 166.321 154.2C164.586 146.582 157.417 139.47 148.348 139.47C142.162 132.145 134.716 126.99 125.166 128.031C121.22 128.21 117.392 132.398 113.611 133.206C111.494 133.498 92.7034 132.746 88.9395 134.983C86.3176 136.329 83.9508 138.818 84.7217 141.986C85.9517 145.825 82.1292 141.672 74.1554 145.769C57.8955 155.538 67.6117 168.607 68.0423 169.012C57.8955 183.135 49.0268 194.593 44.9233 211.855C42.2639 224.671 42.5633 237.902 40.335 250.784C39.5483 255.25 38.3413 259.564 37.0352 263.902C35.6197 269.578 34.9315 283.727 34.1512 283.853C32.73 284.206 34.9726 287.126 36.4785 287.128C78.2301 294.056 120.64 287.415 162.615 286.33C174.445 285.918 186.287 285.823 198.116 286.313Z" fill="white"/>
  <path fill-rule="evenodd" clip-rule="evenodd" d="M134.835 170.259C134.854 170.067 135.112 170.068 135.132 170.259L135.427 173.105C135.785 176.582 136.131 180.052 136.381 183.545C136.693 187.901 136.902 192.255 137.002 196.621C137.353 211.825 137.423 227.037 137.452 242.244C139.508 242.102 141.564 241.965 143.621 241.832C145.017 241.742 146.413 241.655 147.808 241.57L151.368 241.354L152.833 241.264C153.823 241.203 154.948 240.954 155.641 241.831C155.918 242.182 156.057 242.639 155.798 243.056C155.202 244.018 154.287 243.984 153.252 244.026C152.275 244.065 151.298 244.104 150.321 244.142C148.227 244.223 146.134 244.3 144.04 244.358C141.843 244.42 139.646 244.47 137.449 244.508C137.427 250.928 137.161 257.34 136.874 263.753L136.744 266.639C136.393 274.443 136.015 282.254 135.478 290.048C135.434 290.686 134.532 290.685 134.488 290.048C133.883 281.271 133.485 272.475 133.089 263.686C132.802 257.314 132.635 250.94 132.556 244.565C132.265 244.566 131.975 244.57 131.685 244.572C123.44 244.607 115.197 244.643 106.951 244.566C106.965 244.582 106.979 244.599 106.988 244.62C107.584 246.029 107.641 247.827 107.627 249.34C107.61 251.074 107.377 252.787 106.977 254.474C105.547 260.516 101.857 265.928 97.6541 270.402L97.5169 270.547C96.5256 271.595 95.3884 272.648 94.7797 273.983C94.158 275.345 93.9422 276.939 93.6354 278.404L93.5996 278.572L92.4 284.115C92.0189 285.876 91.9107 288.443 90.5176 289.713C89.2179 290.899 87.4961 290.28 86.8844 288.754C86.4068 287.563 86.8825 286.255 87.1654 285.064L89.3819 275.744C89.746 274.224 90.144 272.694 90.93 271.328C91.7351 269.93 92.9155 268.916 94.1199 267.879C96.4006 265.915 98.4942 263.666 100.265 261.231C102.035 258.797 103.548 256.114 104.608 253.293C105.139 251.881 105.575 250.414 105.875 248.935C106.16 247.531 106.158 246.077 106.463 244.689C106.484 244.593 106.565 244.527 106.658 244.498C106.636 244.436 106.669 244.352 106.756 244.347L113.499 243.913C119.493 243.527 125.487 243.13 131.475 242.677L132.534 242.6C132.451 234.094 132.521 225.587 132.675 217.078C132.816 209.275 132.818 201.47 133.05 193.668C133.166 189.796 133.414 185.933 133.691 182.069C133.974 178.117 134.427 174.199 134.835 170.259ZM71.5196 215.501C71.4477 215.068 71.9926 214.8 72.2438 215.196C75.1151 219.724 76.4996 224.641 77.0831 229.94C77.5986 234.616 77.4467 239.359 77.19 244.048C76.9162 249.048 76.5968 254.048 76.2737 259.045L75.7774 266.71L74.532 285.923C74.4429 287.298 74.1311 288.547 72.9482 289.186C72.7984 289.311 72.6423 289.424 72.4604 289.521C71.8213 289.863 70.9737 289.69 70.6042 289.034L70.7523 289.131C70.8814 289.213 70.7365 289.099 70.3175 288.791L69.9619 288.331C69.7035 287.943 69.5385 287.561 69.4722 287.099C69.3691 286.381 69.5026 285.594 69.5495 284.873L70.3658 272.274C71.0007 262.479 71.742 252.688 72.3008 242.888C72.5611 238.321 72.7435 233.749 72.6201 229.174C72.4971 224.624 72.2654 219.997 71.5196 215.501ZM96.3593 131.161L96.5186 131.134C102.222 130.186 108.423 130.364 113.635 133.114C113.679 133.137 113.659 133.208 113.611 133.206L111.933 133.139C106.622 132.931 101.327 132.808 96.1051 134.056L95.5705 134.185C93.6899 134.644 91.726 135.206 90.2154 136.448C88.7716 137.636 88.0527 139.468 87.3614 141.155L87.2689 141.378C86.5676 143.044 85.6798 144.624 84.1425 145.665C82.1513 147.014 79.7566 146.849 77.4734 147.032C73.4534 147.356 70.1667 150.27 68.5315 153.837C67.5413 155.996 67.119 158.417 67.0353 160.779C66.9925 161.981 66.9863 163.231 67.1465 164.425C67.1976 164.807 67.6696 166.198 67.9102 166.165C68.4449 166.091 68.9338 166.37 69.1005 166.797C70.4213 165.521 71.7802 164.281 73.1828 163.086C76.6791 160.107 80.4449 157.408 84.4108 155.088C87.4377 153.317 90.6303 151.563 93.9365 150.237C93.6745 150.231 93.4161 150.283 93.1662 150.413C93.0568 150.47 92.948 150.333 93.0344 150.242C94.0757 149.146 95.323 148.99 96.5805 149.282C96.8488 149.197 97.1173 149.114 97.3869 149.036C97.521 148.997 97.5878 149.182 97.4784 149.253L97.1695 149.451C98.5413 149.91 99.8881 150.814 100.954 151.527C104.017 153.575 106.713 156.078 109.446 158.535L109.943 158.98C112.349 161.129 114.816 163.217 117.549 164.941C118.98 165.843 120.482 166.678 122.059 167.298C123.41 167.831 125.612 168.167 126.245 169.596C126.808 170.28 126.572 171.153 125.913 171.613C124.802 172.837 122.578 172.046 121.253 171.537C119.656 170.922 118.109 170.183 116.634 169.317C113.769 167.635 111.128 165.543 108.667 163.318C106.098 160.994 103.674 158.525 101.175 156.128C100.092 155.089 99.0337 154.027 97.9492 152.99L97.4044 152.473C96.8509 151.954 96.0622 151.145 95.2191 150.655C93.6306 151.603 92.0175 152.511 90.4434 153.484C88.246 154.841 86.1132 156.296 84.0134 157.799C79.971 160.693 76.1403 163.934 72.5841 167.408C66.0618 173.778 60.5051 181.053 55.6508 188.756L55.2821 189.343C52.5236 193.752 49.915 198.303 48.0654 203.174C46.0303 208.535 45.0405 214.173 44.5028 219.863C43.9691 225.513 43.7891 231.191 43.1927 236.836C42.5811 242.625 41.376 248.286 40.0053 253.937L39.6784 255.277C38.4382 260.337 37.158 265.398 36.5205 270.578C36.1801 273.345 35.9754 276.15 36.0217 278.939C36.0681 281.745 36.5089 284.488 36.8644 287.265C37.0007 288.328 35.9545 289.216 35.0184 289.357C33.9417 289.518 33.0168 288.831 32.6822 287.831C31.6389 284.712 31.4494 281.264 31.4822 277.991C31.5151 274.667 31.9391 271.365 32.5358 268.099C33.7091 261.674 35.5199 255.383 37.0347 249.035C38.3697 243.44 39.2657 237.836 39.7486 232.104C40.25 226.157 40.5502 220.191 41.4648 214.287C42.3675 208.459 44.0661 202.892 46.6277 197.578C48.9601 192.739 51.8676 188.185 54.9158 183.77C58.6174 178.41 62.6828 173.309 67.2272 168.661C66.819 168.644 66.3998 168.512 66.0149 168.272C64.8373 167.537 64.2889 166.099 64.1203 164.787C63.7256 161.717 63.8209 158.511 64.6102 155.509C65.8835 150.667 69.1882 146.364 73.9776 144.619C75.2103 144.169 76.5208 144.005 77.8273 143.973C79.067 143.942 80.421 144.104 81.6172 143.711C83.5213 143.085 84.3374 140.841 85.0523 139.141L85.0852 139.063C86.0019 136.896 87.1022 135.038 89.0877 133.685C91.206 132.242 93.8601 131.585 96.3593 131.161ZM150.549 139.731C152.263 139.136 154.405 139.676 156.081 140.195C157.949 140.774 159.674 141.841 161.153 143.108C162.714 144.443 164.004 146.093 164.915 147.935L165.002 148.113C165.834 149.822 166.782 152.168 166.363 154.046C166.35 154.099 166.337 154.151 166.321 154.2C169.721 155.875 172.862 157.972 175.596 160.631C178.781 163.726 181.477 167.248 183.758 171.053C192.821 186.166 194.416 204.317 195.486 221.552L195.753 225.922C196.334 235.359 197.014 244.773 198.781 254.08L198.91 254.751C200.798 264.495 203.501 274.313 203.227 284.309C203.145 287.304 198.721 287.283 198.593 284.309C198.11 273.113 195.498 262.303 193.729 251.283C190.618 231.893 192.177 211.904 187.768 192.708C186.037 185.175 183.357 177.868 179.53 171.144C177.639 167.822 175.476 164.613 172.942 161.747C170.762 159.281 168.496 156.908 165.948 154.835C165.134 155.651 163.507 155.235 163.082 154.046C162.79 153.229 162.876 152.273 162.688 151.417C162.514 150.622 162.274 149.835 161.955 149.087C161.318 147.596 160.384 146.164 159.305 144.957C158.139 143.652 156.799 142.569 155.301 141.674C153.791 140.773 152.141 140.504 150.549 139.845C150.495 139.823 150.49 139.751 150.549 139.731ZM157.207 243.355C157.21 243.276 157.303 243.239 157.36 243.292C157.961 243.845 158.324 244.638 158.766 245.319C159.276 246.103 159.812 246.872 160.373 247.62C161.498 249.12 162.751 250.534 164.013 251.919C165.188 253.207 166.439 254.44 167.737 255.603C169.144 256.863 170.72 257.988 171.998 259.383C174.665 262.294 175.096 266.291 175.658 270.043L175.72 270.449C176.063 272.675 176.37 274.908 176.648 277.144C176.782 278.232 176.917 279.32 177.027 280.411L177.06 280.756C177.158 281.824 177.185 282.906 176.572 283.839C175.916 284.837 174.424 285.187 173.538 284.23C172.014 282.586 172.3 279.667 172.102 277.552C171.938 275.804 171.752 274.057 171.544 272.313L171.439 271.442C171.194 269.458 170.995 267.435 170.541 265.485C170.141 263.769 169.379 262.473 168.129 261.23C166.869 259.977 165.56 258.808 164.398 257.459C163.165 256.028 162.052 254.494 161.05 252.892C160.193 251.523 159.506 250.032 158.876 248.544L158.772 248.296C158.163 246.844 157.16 244.954 157.207 243.355ZM179.203 180.997C179.216 180.795 179.515 180.791 179.52 180.997C179.558 182.739 179.594 184.48 179.63 186.222C179.921 200.256 179.742 214.323 181.149 228.309C181.813 234.903 183.035 241.401 184.45 247.871C185.174 251.182 185.933 254.485 186.654 257.796C187.357 261.023 188.111 264.266 188.669 267.523C189.217 270.724 189.708 273.95 189.928 277.192L189.956 277.615C190.05 279.186 190.503 281.496 189.639 282.888C188.702 284.396 186.908 284.423 185.905 282.984C184.962 281.632 185.197 279.228 185.03 277.615C184.861 275.973 184.682 274.328 184.479 272.689C184.082 269.492 183.56 266.302 183.016 263.127C181.885 256.514 180.243 249.985 179.031 243.383C177.789 236.618 176.907 229.804 176.87 222.916C176.833 215.97 177.568 209.037 177.939 202.106C178.316 195.066 178.744 188.032 179.203 180.997ZM112.932 137.346C113.309 136.077 114.638 135.284 115.935 135.64C117.123 135.967 118.105 137.41 117.64 138.645C117.133 139.992 116.247 141.14 115.5 142.365C114.81 143.496 113.803 144.387 113.1 145.498L113.875 146.334C114.263 146.75 114.651 147.165 115.044 147.572L116.395 148.972C117.447 150.059 118.506 151.142 119.595 152.192C122.796 155.281 126.048 158.268 129.633 160.913C130.449 161.515 131.271 162.114 132.117 162.674L132.432 162.883C133.012 163.263 133.659 163.637 134.36 163.572C136.063 163.416 137.601 161.607 138.771 160.481L138.832 160.423C141.732 157.662 144.417 154.645 146.764 151.4C147.286 150.679 147.79 149.946 148.282 149.204C147.147 147.878 147.418 145.289 147.355 143.681C147.311 142.55 147.308 141.419 147.302 140.287L147.299 140.059C147.285 139.326 147.252 138.624 147.727 138.021C147.755 137.986 147.812 137.987 147.847 138.005C148.498 138.347 148.699 138.918 148.976 139.559L149.005 139.625C149.343 140.394 149.667 141.171 149.995 141.944C150.337 142.754 150.652 143.576 150.97 144.395C151.119 144.777 151.26 145.159 151.399 145.544C151.483 145.79 151.57 146.035 151.66 146.279L151.681 146.298C151.799 146.398 151.9 146.504 151.986 146.614C152.349 146.795 152.638 147.126 152.773 147.613C153.068 148.672 152.458 149.536 151.914 150.376C149.704 153.792 147.185 157.046 144.385 159.999C142.994 161.465 141.531 162.866 140.007 164.195L139.741 164.426C138.373 165.602 136.887 166.716 135.06 166.992C132.921 167.313 131.181 166.249 129.544 165.024L129.38 164.901C127.828 163.726 126.308 162.509 124.834 161.236C121.83 158.642 118.972 155.856 116.436 152.8C113.969 149.827 111.53 146.503 110.01 142.926C109.917 142.708 110.161 142.48 110.352 142.662C111.094 143.369 111.809 144.115 112.515 144.87C112.535 143.758 112.33 142.637 112.444 141.518C112.583 140.158 112.543 138.656 112.932 137.346Z" fill="black"/>
  <path fill-rule="evenodd" clip-rule="evenodd" d="M129.726 53.9492C141.722 53.9492 154.13 63.2512 158.527 69.187C162.224 74.1775 164.215 96.7446 164.215 111.996C164.215 115.185 165.974 121.198 165.461 124.249C163.579 135.429 155.381 144.806 139.156 144.806C122.931 144.806 111.298 138.372 99.2386 121.098C93.3872 121.098 90.5514 116.609 90.5102 109.525C90.469 102.44 96.1583 99.863 96.1583 99.863C96.1583 99.863 94.1298 71.9058 99.2386 64.6271C104.347 57.3483 117.73 53.9492 129.726 53.9492Z" fill="white"/>
  <path fill-rule="evenodd" clip-rule="evenodd" d="M124.679 49.9962C132.253 49.229 139.675 49.8736 147.139 51.2074C147.709 51.3108 148.033 51.6851 148.153 52.135C151.668 52.2957 155.188 52.5537 158.699 52.7461C159.973 52.8158 160.696 54.0752 160.115 55.2125C159.999 55.4384 159.878 55.6582 159.756 55.8781L159.909 55.8273C160.966 55.4883 162.107 55.3212 163.136 55.8592C164.446 56.544 164.959 58.055 164.67 59.4456C164.596 59.8007 164.471 60.141 164.33 60.473C164.617 60.454 164.906 60.4603 165.194 60.4984C166.723 60.7013 167.86 61.8743 167.94 63.4362C168.059 65.7946 166.54 68.1873 164.75 69.8758C165.01 70.4107 165.109 71.0405 165.001 71.6788C164.786 72.9406 163.857 73.6961 162.78 74.189C163.229 75.6158 163.441 77.1076 163.316 78.632C163.274 79.141 162.829 79.5613 162.359 79.6645C164.11 84.4862 164.996 89.663 165.633 94.7073C166.087 98.2963 166.311 101.906 166.339 105.522C166.352 107.155 166.325 108.789 166.257 110.422L166.229 111.034C166.144 112.799 166.14 114.652 165.823 116.398C166.905 118.239 167.34 120.524 167.524 122.587C167.752 125.14 167.391 127.773 166.586 130.202C163.548 139.378 154.379 145.169 145.17 146.674C136.645 148.067 126.781 146.192 121.799 138.446C121.721 138.324 121.888 138.222 121.985 138.303C125.549 141.202 129.684 142.496 134.175 143.126C141.942 144.212 150.671 142.369 156.903 137.483C159.895 135.137 162.052 131.721 163.001 128.046C163.485 126.167 163.652 124.208 163.461 122.274C163.267 120.313 162.399 118.639 161.852 116.785C161.668 116.159 161.862 115.578 162.244 115.164C162.352 113.659 162.606 112.142 162.703 110.641C162.81 108.935 162.876 107.23 162.899 105.522C162.944 101.98 162.796 98.4313 162.498 94.9041C161.953 88.445 160.506 82.1428 159.656 75.7386C159.342 76.0208 158.891 76.1366 158.419 75.8901L158.37 75.8633L158.112 75.7156C158.097 75.7156 158.08 75.7177 158.065 75.7196C156.302 75.891 154.472 75.6459 152.782 75.1194C151.013 74.5701 149.372 73.7247 147.906 72.5982C147.627 74.0119 147.51 75.4406 147.509 76.882C147.506 77.7824 146.554 78.2497 145.797 77.865C142.444 76.1613 139.242 74.1981 136.202 71.9916C135.846 73.8113 135.492 75.6308 135.134 77.4527C134.997 78.1546 134.103 78.4378 133.531 78.1039C131.254 76.7785 129.287 75.0435 127.685 72.9805C127.366 73.5922 127.045 74.2037 126.722 74.8139L126.236 75.7281C125.756 76.6263 125.114 77.6199 124.064 77.9071C122.953 78.2114 122.025 77.4909 121.652 76.4847C121.537 76.1721 121.432 75.8507 121.335 75.5273C120.388 77.6896 119.319 79.8031 118.111 81.8194C116.298 84.8436 114.122 87.5383 111.952 90.3028C111.293 91.1421 110.165 90.3408 110.074 89.5252C110.021 89.0455 109.977 88.5636 109.939 88.0836C108.674 90.6359 107.355 93.1643 105.918 95.6193L106.124 96.426C106.717 98.8096 107.209 101.21 107.745 103.606C107.917 104.38 107.507 105.485 106.604 105.617C105.525 105.774 104.504 106.325 103.4 105.946C102.195 105.532 101.957 104.49 101.388 103.503C101.274 103.306 101.142 103.125 101 102.954L100.964 103.001C100.875 103.117 100.664 102.99 100.717 102.857L100.779 102.703C100.29 102.184 99.7055 101.752 99.1678 101.286C97.8901 101.071 96.4528 101.307 95.5725 101.826C93.5675 103.009 92.6466 105.448 92.6276 107.691C92.6044 110.316 93.4175 113.266 94.7908 115.511C95.3952 116.498 96.2234 117.389 97.3175 117.827C98.4037 118.262 99.5804 118.127 100.685 118.537C101.416 118.81 101.866 119.622 101.425 120.357C101.395 120.408 101.361 120.454 101.33 120.503L101.658 120.939C101.884 121.241 102.12 121.565 102.34 121.902C102.902 122.549 103.493 123.172 104.066 123.808C105.124 124.981 106.151 126.186 107.192 127.376C108.175 128.498 109.214 129.553 110.285 130.59C111.297 131.573 112.561 132.4 113.49 133.448C114.394 134.471 114.64 136.257 113.152 136.849C111.506 137.505 110.05 135.967 108.942 134.941L108.895 134.898C106.865 133.028 105.031 130.892 103.574 128.54C102.132 129.522 100.045 129.616 98.609 128.634C97.8531 128.117 97.2732 127.249 96.9913 126.304C96.7256 126.364 96.46 126.398 96.201 126.394C96.0677 126.472 95.9339 126.547 95.7987 126.617C94.7274 127.175 93.4114 126.926 92.9213 125.74C92.4749 124.663 92.9349 123.441 93.3369 122.403L93.4199 122.189C93.648 121.598 93.8994 120.953 94.2121 120.346C93.3417 119.691 92.5978 118.877 91.9684 117.952C89.8537 114.834 88.7973 110.275 89.2642 106.556C89.5452 104.311 90.5992 101.986 92.3253 100.473L92.2621 100.308C91.7783 99.0804 91.3387 97.848 91.0537 96.5505C90.7199 95.033 90.557 93.4606 90.4093 91.9156C90.0966 88.6524 90.1811 85.3151 90.5973 82.0646C91.379 75.946 93.3607 69.9394 96.8783 64.848C95.8809 63.6536 95.091 62.2482 95.5027 60.6315C95.691 59.8895 96.1196 59.1859 96.7663 58.7609C97.1232 58.5265 97.548 58.4906 97.9051 58.2961L98.0124 58.237C98.1693 58.1454 98.0493 58.1551 97.9558 57.7297C97.5861 56.0302 97.8924 54.3882 99.7621 53.8239C101.522 53.2935 103.187 54.4199 104.228 55.762C106.954 53.828 110.545 52.8158 113.704 51.9556C117.295 50.9811 120.979 50.3726 124.679 49.9962ZM95.2407 106.997C95.2278 105.613 96.5398 104.759 97.8309 104.986C98.6978 105.137 99.421 105.654 100.1 106.189L100.431 106.451C101.258 107.101 102.207 107.801 102.7 108.72C103.423 110.077 101.896 111.903 100.47 110.952C99.4914 110.296 98.8643 109.245 98.2227 108.269L98.1562 108.168C97.8647 107.731 97.609 107.266 97.2095 106.915L97.1232 106.839C96.9919 106.727 96.8509 106.625 96.6814 106.577C96.3542 106.483 95.7483 106.615 95.6041 107.004L95.5912 107.044C95.5384 107.241 95.2428 107.198 95.2407 106.997Z" fill="black"/>
  <path fill-rule="evenodd" clip-rule="evenodd" d="M143.152 128.274C141.732 127.694 140.465 126.728 139.538 125.493C139.216 125.063 139.133 124.61 139.2 124.195C139.276 123.729 139.552 123.306 139.928 123.023C140.305 122.739 140.777 122.598 141.233 122.67C141.63 122.732 142.024 122.949 142.337 123.399L142.402 123.489C142.953 124.235 143.67 124.846 144.488 125.241C145.276 125.621 146.158 125.798 147.07 125.695C148.807 125.498 150.005 124.559 151.278 123.282C151.436 123.121 151.593 122.955 151.752 122.786C151.852 122.633 151.991 122.534 152.146 122.483C152.317 122.425 152.511 122.429 152.689 122.491C152.86 122.55 153.013 122.664 153.116 122.814C153.213 122.958 153.268 123.135 153.251 123.339C153.134 124.661 152.443 125.842 151.461 126.769C150.37 127.799 148.924 128.511 147.563 128.761C146.064 129.036 144.536 128.839 143.152 128.274ZM148.271 107.866C149.866 108.836 152.297 111.098 150.581 113.503C148.561 115.624 145.652 113.193 144.219 112.093C142.89 111.241 141.396 113.433 142.63 114.428C152.987 122.099 157.19 108.12 149.078 106.726C148.185 106.572 147.853 107.566 148.271 107.866ZM129.711 98.9429C129.887 96.7541 133.219 96.257 133.551 98.4229C133.847 100.363 133.498 102.145 132.624 103.892C131.79 105.561 129.692 104.783 129.533 103.263C129.32 101.226 129.601 100.304 129.711 98.9429ZM155.077 97.9739C155.541 97.3652 156.212 96.9497 157.016 97.1845C159.526 97.9185 158.786 101.485 157.905 103.22C157.425 104.163 155.877 104.402 155.177 103.572C154.036 102.219 153.49 99.5157 154.94 98.1825C154.979 98.1136 155.023 98.044 155.077 97.9739ZM132.589 89.3654L132.986 89.2959C134.213 89.0836 135.738 88.8796 136.606 89.8665C137.067 90.3898 137.225 91.3624 136.606 91.8633C135.518 92.7446 134.314 92.4031 133.01 92.4777C131.935 92.5394 130.902 92.7174 129.867 93.0135C127.595 93.663 125.744 94.8486 123.804 96.1505C123.55 96.3213 123.29 95.9956 123.411 95.7574C124.531 93.563 126.701 91.7604 128.875 90.6616C130.036 90.0751 131.305 89.5885 132.589 89.3654ZM152.788 88.3823L153.091 88.4445C156.395 89.1353 160.687 90.5153 162.251 93.7615C162.311 94.2205 162.248 94.3189 162.197 94.3832L162.18 94.4046C162.138 94.4595 162.104 94.5351 161.905 94.5976C161.85 94.5844 161.794 94.5705 161.738 94.5557C161.021 94.3677 160.453 94.1087 159.904 93.84L159.308 93.5465C158.617 93.2076 157.92 92.881 157.182 92.6399C155.605 92.1255 153.984 91.7631 152.337 91.5696C151.98 91.5277 151.636 91.4072 151.365 91.2006C151.108 91.0046 150.911 90.7332 150.822 90.3724C150.705 89.9056 150.739 89.5521 150.989 89.1309C151.177 88.8146 151.447 88.5953 151.756 88.4694C152.072 88.3411 152.431 88.3108 152.788 88.3823Z" fill="black"/>
  <path fill-rule="evenodd" clip-rule="evenodd" d="M166.773 116.395C166.491 115.554 165.042 115.627 165.131 116.618C165.233 117.749 164.846 119.012 163.762 119.561C162.627 120.136 161.35 119.619 160.658 118.632C160.056 117.774 159.641 116.841 158.884 116.093C158.179 115.397 157.323 114.861 156.386 114.542C155.656 114.294 154.899 114.228 154.165 114.31C152.336 113.896 150.216 114.837 149.076 116.264C149.002 116.356 148.934 116.45 148.868 116.546C148.755 116.392 148.637 116.239 148.511 116.089C148.188 115.702 147.787 115.619 147.425 115.724C145.363 114.19 142.473 113.987 140.131 115.371C138.254 116.481 136.702 118.116 134.395 118.243C132.567 118.344 130.576 117.3 130.447 115.291C130.38 114.242 128.951 113.367 128.149 114.339C126.464 116.381 126.126 119.094 127.059 121.564C128.043 124.17 130.048 126.005 132.587 127.085C135.328 128.251 138.54 128.656 141.506 128.564C144.463 128.472 147.151 127.334 148.933 124.915C149.145 124.626 149.332 124.333 149.496 124.036C151.227 126.24 153.939 127.166 156.701 127.233C159.592 127.302 163.008 126.795 165.052 124.55C167.021 122.385 167.7 119.167 166.773 116.395Z" fill="black"/>
</svg>
