<svg width="261" height="370" viewBox="0 0 261 370" fill="none" xmlns="http://www.w3.org/2000/svg">
  <path fill-rule="evenodd" clip-rule="evenodd" d="M137.988 147.154C149.371 146.227 164.977 148.794 168.27 163.56C169.291 168.933 171.302 171.292 174.682 174.806C196.137 206.046 121.283 211.297 117.435 180.834C109.328 184.193 100.504 184.904 92.3924 188.299C87.9931 190.148 84.0038 193.065 80.1811 196.116C64.5927 208.712 49.2249 221.667 33.6921 234.354C39.7029 237.503 51.1309 249.526 46.4742 257.605C45.3895 259.179 43.7793 260.264 42.3549 261.414L41.6038 262.024C39.988 263.341 37.2679 265.587 35.7637 266.807L35.4863 267.037C35.3776 267.126 35.2549 267.227 35.144 267.317C45.9912 285.359 58.6859 302.007 72.7674 316.87C73.9665 318.138 73.4753 320.973 71.74 321.304L69.6725 321.649C62.997 322.755 56.1946 323.75 49.4674 323.15C42.9157 322.339 38.9676 315.741 34.4887 310.961C25.5448 300.561 17.219 289.467 9.63559 277.747L9.47769 277.499C7.11748 273.83 3.98476 270.08 3.75549 265.342C3.33734 263.917 4.43775 261.876 5.4951 260.905L5.85607 260.312C11.5271 251.033 17.9453 242.085 25.9865 235.365C25.9566 234.364 26.3635 233.311 27.1692 232.648L60.7751 204.98V204.98C69.446 198.191 77.5053 190.212 86.9039 184.731C96.5142 179.466 107.359 179.259 117.208 174.866C117.417 171.699 123.268 170.891 123.084 171.38C129.258 167.141 132.436 162.096 133.416 157.46C134.397 152.823 133.178 148.595 137.988 147.154ZM221.093 246.49C231.484 228.701 241.389 248.382 245.715 260.245C250.826 276.478 240.242 296.446 233.404 310.441C230.885 314.327 227.572 322.524 223.133 323.119C211.949 323.067 200.749 322.171 189.558 321.904C182.331 319.864 192.47 307.51 199.473 312.022C201.595 312.926 202.655 315.666 204.724 316.546C205.478 316.729 205.53 316.346 205.837 315.492L205.88 315.373C206.427 313.895 206.957 312.409 207.496 310.927C212.052 298.162 216.869 285.509 221.658 272.862C222.681 270.116 221.246 267.854 219.381 266.219C217.953 264.882 211.812 261.616 217.598 263.054C215.37 257.171 218.047 251.2 221.093 246.49ZM195.293 222.139C196.294 221.997 197.579 223.144 197.733 224.255C199.009 233.467 197.587 242.574 195.883 251.585L195.569 253.235C194.94 256.521 194.238 259.872 192.669 262.753C191.069 265.693 188.648 267.908 185.869 269.255C176.954 273.297 165.866 269.3 159.307 261.743C155.112 255.205 158.8 246.991 159.504 239.825C158.839 237.894 158.593 235.66 158.209 233.669L158.162 233.431L156.666 226.004C156.337 224.366 157.386 222.125 159.11 222.35C171.133 223.918 183.285 223.848 195.293 222.139Z" fill="white"/>
  <path fill-rule="evenodd" clip-rule="evenodd" d="M237.281 244.162C237.245 243.979 237.438 243.839 237.563 243.977C239.679 246.296 241.172 249.26 242.812 252.006C244.373 254.623 246.073 257.138 247.237 260.025C248.319 262.708 249.017 265.431 249.225 268.38C249.433 271.308 249.164 274.243 248.71 277.127C247.817 282.808 245.907 288.188 243.811 293.414C241.773 298.494 239.471 303.429 237.039 308.275L236.168 310.005C235.105 312.111 234.03 314.213 232.879 316.253C231.447 318.793 230.14 321.414 228.252 323.533C226.912 325.041 224.385 323.533 224.996 321.377C225.261 320.439 225.469 319.555 225.881 318.684C226.192 318.02 226.545 317.375 226.875 316.722C227.537 315.414 228.193 314.101 228.855 312.792C230.244 310.043 231.708 307.345 233.085 304.586C235.474 299.803 237.729 294.929 239.723 289.914L239.958 289.322C241.793 284.678 243.532 279.868 244.337 274.844C245.186 269.551 244.426 264.562 242.774 259.587C241.919 257.015 240.958 254.5 239.959 251.994L239.767 251.516C238.802 249.125 237.779 246.746 237.281 244.162ZM134.57 152.611C134.589 152.517 134.729 152.51 134.742 152.611C135.336 157.105 134.014 161.86 131.861 165.598C130.686 167.64 129.237 169.484 127.529 170.966L127.396 171.08C125.651 172.564 123.294 173.997 121.128 173.035C121.061 173.005 120.997 172.972 120.937 172.933C121.181 173.363 121.406 173.814 121.635 174.266C122.316 175.61 122.927 177.003 123.591 178.359C124.779 180.785 126.195 182.954 127.983 184.854C135.134 192.448 145.176 194.253 154.606 194.166L155.272 194.159C159.415 194.126 164.832 194.366 168.03 190.956C169.748 189.124 170.695 186.519 171.55 184.074C172.39 181.678 172.965 179.204 173.663 176.766C172.205 175.629 170.869 174.242 169.818 172.619C168.724 170.93 167.896 169.028 167.419 166.998L167.349 166.695C166.98 165.076 166.608 162.935 167.203 161.406C167.271 161.23 167.525 161.242 167.597 161.406C167.918 162.137 167.979 162.963 168.176 163.745C168.406 164.655 168.664 165.56 169.006 166.421C169.666 168.092 170.538 169.68 171.584 171.07C172.447 172.221 173.383 173.278 174.452 174.167C175.082 172.928 176.544 172.762 177.768 173.17C179.408 173.715 181.027 174.415 182.609 175.155L182.925 175.303C184.489 176.042 186.256 176.72 187.72 177.727C188.608 178.209 189.461 178.694 190.263 179.124C194.259 181.26 198.196 183.525 202.114 185.835L202.954 186.331C204.596 187.304 206.223 188.286 207.651 189.642C209.104 191.023 210.233 192.91 211.293 194.679C213.718 198.725 216.003 202.886 218.4 206.952C223.242 215.159 228.083 223.365 232.952 231.552C234.129 233.533 235.457 235.466 236.514 237.532C237.525 239.507 237.498 241.534 237.301 243.738L237.264 244.142C236.885 248.184 236.235 252.067 234.241 255.533C231.104 260.983 226.161 264.376 220.931 266.712C221.57 267.253 222.17 267.837 222.932 268.209C224.103 268.778 225.352 269.073 226.619 269.191C227.97 269.314 229.494 268.93 230.588 269.976C231.027 270.393 231.04 271.397 230.588 271.815C229.536 272.792 228.176 272.512 226.893 272.348L226.816 272.338C225.626 272.189 224.453 271.938 223.335 271.441C223.059 271.317 222.785 271.18 222.52 271.028C222.529 271.054 222.533 271.086 222.529 271.12C222.338 272.782 221.924 274.355 221.487 275.944L221.209 276.951C220.645 279.007 220.076 281.059 219.491 283.11C218.377 287.016 217.163 290.884 215.945 294.748L214.894 298.082C213.814 301.502 212.72 304.918 211.512 308.281C210.765 310.357 210.014 312.433 209.265 314.506C208.533 316.531 207.924 318.718 207.016 320.646C206.27 322.234 204.233 321.097 204.56 319.466C204.988 317.325 205.797 315.201 206.414 313.118C207.042 311.004 207.657 308.887 208.296 306.777C209.406 303.113 210.636 299.497 211.873 295.885L213.098 292.304C214.3 288.795 215.516 285.29 216.816 281.826L216.958 281.447C218.308 277.824 219.702 273.751 222.155 270.944C222.187 270.905 222.232 270.885 222.276 270.881C221.674 270.509 221.109 270.058 220.613 269.524L220.589 269.496C220.393 269.26 219.582 268.095 219.321 267.398C218.982 267.535 218.642 267.668 218.303 267.798C217.711 268.025 217.221 267.861 216.875 267.502L216.216 267.965C215.512 268.455 214.755 268.919 213.977 268.943C212.997 268.972 212.227 268.356 211.703 267.449C211.232 266.638 210.952 265.761 210.356 265.035C209.77 264.321 209.091 263.718 208.398 263.143L207.581 262.466C206.082 261.222 204.629 259.964 203.423 258.32C202.816 257.49 202.003 256.505 201.634 255.508C201.562 255.316 201.518 255.135 201.509 254.958C201.429 255.581 201.346 256.206 201.263 256.829C200.105 265.593 199.169 274.417 198.87 283.279C198.724 287.65 198.658 292.026 198.83 296.399C198.915 298.584 199.055 300.765 199.248 302.942C199.343 304.033 199.443 305.122 199.56 306.208L199.586 306.46C199.62 306.792 199.642 307.114 199.617 307.42C200.55 307.943 201.087 309.266 201.46 310.299C201.745 311.086 201.524 311.851 201.066 312.404C201.613 312.971 202.101 313.637 202.51 314.399C202.593 314.554 202.415 314.675 202.309 314.578C201.636 313.97 200.913 313.47 200.158 313.087C199.761 313.258 199.328 313.304 198.929 313.178C198.497 313.043 198.123 312.715 197.854 312.298C195.709 311.897 193.479 312.387 191.549 313.915C191.148 314.233 190.785 314.593 190.439 314.984C190.38 315.052 190.318 315.138 190.257 315.223L190.678 315.407C190.852 315.482 190.996 315.541 191.05 315.553C191.418 315.639 191.791 315.684 192.165 315.721L192.724 315.773C194.873 315.976 197.016 316.043 199.014 317.067C199.434 317.281 199.288 318.018 198.891 318.14C197.432 318.591 195.984 318.556 194.498 318.436L194.179 318.409C192.798 318.288 191.315 318.295 189.968 317.861C190.291 318.865 189.852 320.175 188.504 320.381C184.459 320.994 180.388 320.704 176.338 320.298C172.248 319.888 168.159 319.5 164.059 319.256C150.794 318.462 137.509 318.615 124.232 318.83L116.729 318.954C110.746 319.05 104.761 319.124 98.7783 319.072L95.9777 319.043C94.794 319.029 93.6098 319.013 92.4275 318.974L91.7184 318.947C90.3097 318.889 88.4449 319.13 87.2208 318.182C86.211 317.4 85.9861 315.966 86.595 314.81C86.7711 314.477 87.0129 314.18 87.2654 313.89C87.783 308.858 88.0737 303.802 88.3707 298.748C89.4017 281.061 88.7992 263.466 86.421 245.958C80.0396 248.176 73.7558 250.959 67.6332 253.945C64.3216 255.559 61.0269 257.234 57.7705 258.991C54.7983 260.596 51.8134 262.602 48.6375 263.645C48.3488 263.936 47.9451 264.075 47.5871 263.946L47.5407 263.927H47.5386C47.2119 264.014 46.8491 263.961 46.4927 263.717C46.4206 263.667 46.3484 263.618 46.2763 263.566L46.1681 263.488C45.0501 262.687 43.9257 261.699 43.1344 260.493C42.1734 261.506 41.1402 262.436 40.124 263.377C39.0208 264.4 37.9219 265.428 36.8315 266.466C36.3987 266.879 35.9214 267.272 35.5395 267.748L35.484 267.818C35.4751 267.829 35.4667 267.84 35.4589 267.852C37.1115 269.068 38.5584 270.914 39.8546 272.519C41.2465 274.242 42.5903 276.02 43.9231 277.804L45.2133 279.535C54.337 291.792 63.554 304.493 75.366 313.502C77.2329 314.926 75.453 318.394 73.5988 316.939C70.0899 314.19 66.7698 311.137 63.5812 307.924C57.9932 302.298 52.9653 295.987 48.2578 289.41C45.8753 286.081 43.5629 282.671 41.2972 279.239L40.5282 278.075C39.5034 276.522 38.4841 274.964 37.5082 273.371L37.304 273.038C36.448 271.632 35.5378 270.054 34.9858 268.436C34.7736 268.679 34.5339 268.884 34.1839 269.039C33.5856 269.305 32.8516 268.747 32.7052 268.083C32.3488 266.473 33.5792 265.515 34.5806 264.661C35.7962 263.628 37.0351 262.631 38.2762 261.639L38.7195 261.283C40.2715 260.03 41.8316 258.745 43.5226 257.756C43.5735 257.678 43.6351 257.606 43.7051 257.543C43.7857 257.471 43.8642 257.401 43.9448 257.331C41.9251 253.604 39.7103 250.023 37.2388 246.639C35.3804 244.093 33.4074 241.662 31.3199 239.359L30.3821 238.326C28.9636 236.768 27.4887 235.187 25.9143 233.832L25.4215 234.468C24.7634 235.315 24.0988 236.155 23.3961 236.951C22.0129 238.515 20.6488 240.11 19.2911 241.705C17.0363 244.36 14.8578 247.095 12.6862 249.835L11.6007 251.205C9.33923 254.06 6.9165 256.863 4.86079 259.913L4.75812 260.068C3.86064 261.437 3.22177 262.953 3.63881 264.692C4.04121 266.369 4.99793 267.856 5.82256 269.305L5.90455 269.449C9.27134 275.416 12.8779 281.23 16.7411 286.794C24.4781 297.937 33.3035 308.499 43.8345 316.246C45.294 317.32 43.9299 319.99 42.4682 318.903C36.3181 314.33 30.6686 308.837 25.471 302.938C20.6997 297.524 16.3762 291.563 12.3241 285.444C10.3491 282.459 8.45669 279.41 6.64283 276.295C4.88412 273.27 2.84962 270.159 1.57462 266.823C0.906401 265.069 0.660258 263.169 1.2076 261.321C1.70955 259.621 2.70224 258.21 3.73495 256.883L3.83187 256.759C6.2058 253.725 8.62217 250.727 11.0597 247.759C13.5058 244.78 16.0643 241.908 18.6759 239.121C20.7273 236.927 22.8658 234.993 25.1527 233.202C24.9469 233.036 24.7412 232.877 24.5311 232.722C23.8926 232.249 23.7313 231.238 24.2914 230.596C25.821 228.838 27.5839 227.311 29.2429 225.711C30.8022 224.207 32.3615 222.701 33.9208 221.195C37.0945 218.135 40.2683 215.072 43.442 212.009C49.1424 206.508 54.811 200.969 60.4923 195.445C62.8613 193.142 65.2524 190.867 67.6373 188.586L71.8746 184.529V184.529L73.947 182.55C75.0089 181.538 76.0933 180.538 77.3008 179.766C80.142 177.95 83.5577 177.165 86.688 176.203L86.8963 176.138C90.4073 175.045 93.9374 174.017 97.4867 173.1C101.04 172.183 104.608 171.348 108.192 170.592C111.412 169.911 114.709 169.327 117.993 169.24C118.808 168.888 119.83 168.765 120.632 169.142C120.963 169.298 121.309 169.528 121.616 169.817C123.222 169.175 124.807 168.869 126.307 167.783C127.805 166.699 129.131 165.275 130.247 163.706C132.553 160.458 133.76 156.62 134.57 152.611ZM171.486 262.619C170.213 262.518 169.068 263.116 167.93 263.753C168.571 264.07 169.212 264.383 169.853 264.695L174.117 266.766V266.766C175.525 267.449 177.017 268.042 178.355 268.884C178.451 268.945 178.527 269.017 178.585 269.102C179.976 268.088 181.449 267.183 182.859 266.22C183.182 266 183.506 265.781 183.831 265.561C182.151 266.201 180.428 266.522 178.604 265.921C176.17 265.122 174.057 262.824 171.486 262.619ZM174.974 257.763L174.745 257.586C173.51 256.623 172.037 255.384 170.538 256.25C169.831 256.658 169.252 257.316 168.556 257.756C167.856 258.2 167.086 258.54 166.305 258.745C165.009 259.086 163.524 259.136 162.13 258.808L162.151 260.951V260.951C163.206 261.446 164.254 261.953 165.302 262.465C165.982 262.2 166.637 261.882 167.326 261.533L167.79 261.296C169.116 260.618 170.455 260.165 171.921 260.379C174.681 260.782 176.766 263.116 179.405 263.893C182.641 264.849 185.56 262.103 188.617 261.424C189.121 261.311 189.641 261.245 190.157 261.235L190.329 261.234L190.405 261.183C191.063 260.744 192.047 260.324 192.506 259.585C193.004 258.784 193.047 257.442 193.21 256.501C193.227 256.407 193.244 256.31 193.259 256.216C192.97 256.216 192.677 256.233 192.38 256.296C191.447 256.491 190.569 256.868 189.699 257.288C188.055 258.082 186.447 258.987 184.716 259.515C183.02 260.034 181.249 260.28 179.503 259.993C177.799 259.713 176.384 258.839 174.974 257.763ZM175.239 250.227L174.984 250.04C174.309 249.551 173.536 249.044 172.71 249.224C171.972 249.385 171.337 250.054 170.695 250.467C169.284 251.372 167.701 251.867 166.087 251.992C164.744 252.096 163.35 251.91 162.058 251.456L162.103 256.202V256.202C162.576 256.373 163.066 256.496 163.581 256.539C165.147 256.672 166.674 256.245 167.988 255.262L168.652 254.761C169.789 253.911 170.855 253.237 172.36 253.547C173.849 253.855 175.099 254.941 176.316 255.888L176.516 256.04C177.915 257.09 179.332 257.769 181.047 257.785C182.899 257.801 184.73 257.215 186.455 256.493C188.167 255.779 189.794 254.922 191.625 254.659C192.185 254.579 192.868 254.555 193.511 254.681C193.596 254.143 193.676 253.607 193.753 253.069C193.918 251.912 194.06 250.759 194.184 249.603C190.936 248.608 187.936 251.826 184.919 252.818C183.169 253.392 181.264 253.385 179.513 252.83C177.894 252.315 176.621 251.248 175.239 250.227ZM175.247 242.236C174.554 242.084 173.868 242.449 173.279 242.823C171.775 243.772 170.476 245.092 168.773 245.591C166.581 246.233 164.184 245.681 162.007 244.631C162.016 246.095 162.026 247.561 162.037 249.026C162.446 249.202 162.866 249.344 163.295 249.458C164.818 249.854 166.433 249.8 167.933 249.301C169.462 248.791 170.635 247.416 172.169 246.986C173.738 246.545 175.216 247.403 176.48 248.378L176.86 248.673C178.305 249.788 179.706 250.758 181.514 250.947C183.426 251.147 185.087 250.467 186.795 249.564L187.192 249.355C189.354 248.225 192.161 246.939 194.319 248.224C194.489 246.4 194.612 244.575 194.695 242.748C194.398 242.623 194.09 242.531 193.736 242.528C192.89 242.524 192.001 242.828 191.212 243.144C189.487 243.837 187.881 244.869 186.173 245.611C184.554 246.315 182.762 246.682 181.035 246.366C179.435 246.074 178.234 245.123 177.129 243.82L176.969 243.627C176.484 243.04 175.965 242.395 175.247 242.236ZM176.514 235.462C175.714 234.981 174.741 234.535 173.816 234.675C172.933 234.807 172.345 235.488 171.801 236.216L171.507 236.615C170.535 237.923 169.578 239.024 168.079 239.562C166.526 240.117 164.88 239.9 163.435 239.087C162.922 238.797 162.444 238.437 161.965 238.083L161.99 241.932V241.932C162.949 242.475 163.925 242.965 164.997 243.262C166.974 243.81 168.654 243.405 170.345 242.164L170.522 242.033C171.796 241.081 173.102 239.948 174.675 239.842C176.21 239.738 177.362 240.706 178.373 241.891L178.491 242.031C179.766 243.561 181.054 244.307 182.951 244.131C184.789 243.96 186.51 243.036 188.195 242.241L188.348 242.169C189.888 241.449 191.664 240.709 193.354 240.984C193.76 241.049 194.284 241.191 194.75 241.44C194.818 239.639 194.85 237.836 194.856 236.031C193.895 235.083 192.4 234.926 191.197 235.314C189.313 235.923 187.771 237.491 185.972 238.343C184.376 239.099 182.713 239.268 181.086 238.553C179.406 237.815 178.088 236.408 176.514 235.462ZM194.75 227.878C191.935 227.989 189.181 230.072 186.493 230.866C183.491 231.753 181.04 230.544 178.365 229.203L178.02 229.03C176.647 228.344 175.173 227.729 173.652 228.008C172.169 228.284 170.858 229.218 169.583 230.062L169.339 230.223C167.016 231.727 164.651 232.757 161.939 232.5C161.954 233.468 161.948 234.433 161.95 235.38C162.395 235.669 162.824 235.997 163.231 236.297L163.377 236.402C164.67 237.322 166.003 237.926 167.544 237.359C169.033 236.808 169.734 235.334 170.756 234.12C171.696 233.005 172.922 232.327 174.297 232.392C175.776 232.459 177.174 233.2 178.396 234.105C179.618 235.01 180.799 236.181 182.229 236.635C185.437 237.648 188.184 233.789 191.218 233.188C192.491 232.935 193.895 233.256 194.856 234.129C194.846 232.049 194.805 229.963 194.75 227.878ZM170.519 227.004C170.122 227.021 169.725 227.041 169.329 227.06C167.861 227.132 166.392 227.214 164.924 227.308C163.908 227.371 162.659 227.726 161.662 227.374C161.636 227.489 161.602 227.601 161.558 227.709C161.708 228.564 161.802 229.447 161.859 230.34C162.78 230.453 163.715 230.415 164.623 230.2C166.802 229.686 168.571 228.122 170.519 227.004ZM194.708 226.288C189.347 226.708 183.945 226.563 178.575 226.695L177.931 226.712C177.905 226.712 177.88 226.715 177.855 226.715C178.47 226.986 179.081 227.297 179.69 227.614L180.298 227.931C181.737 228.684 183.201 229.3 184.811 229.167C186.536 229.024 188.161 228.223 189.773 227.576C191.311 226.958 193.083 226.543 194.722 226.814C194.718 226.637 194.714 226.464 194.708 226.288Z" fill="black"/>
  <path fill-rule="evenodd" clip-rule="evenodd" d="M184.216 97.5615C182.296 88.3529 178.099 79.7832 171.378 72.8575C151.154 50.1105 114.015 62.4571 114.183 96.7351C113.458 100.739 113.164 104.855 113.404 108.938C113.503 110.68 114.166 113.112 113.275 114.68C111.267 117.613 110.1 119.775 110.783 123.677C111.354 127.083 113.392 129.497 116.143 130.78C117.792 131.318 119.357 132.491 119.968 134.279C123.639 141.927 126.359 148.287 132.147 153.499C133.641 154.841 148.959 162.888 154.006 162.888C168.783 162.888 187.406 156.798 187.716 138.021C187.769 133.897 187.133 129.724 186.734 125.633C185.762 116.295 186.105 106.619 184.216 97.5615Z" fill="white"/>
  <path fill-rule="evenodd" clip-rule="evenodd" d="M183.884 92.9556C183.888 92.8417 184.032 92.8161 184.06 92.9285C184.609 95.1454 184.92 97.4038 185.35 99.6552C185.763 101.824 186.154 103.999 186.479 106.186C187.092 110.315 187.609 114.454 188.09 118.605L188.209 119.643C189.045 126.945 190.425 134.553 189.218 141.899C188.188 148.166 184.737 153.218 180.288 156.922C176.076 160.428 170.969 162.679 165.898 163.958C160.456 165.332 154.005 165.742 149.577 161.201C147.804 159.383 150.22 155.776 152.143 157.416C156.659 161.268 162.404 160.133 167.499 158.6L167.654 158.553C172.126 157.198 176.628 155.144 180.178 151.679C184.104 147.847 186.045 142.53 186.269 136.697C186.395 133.421 186.126 130.148 185.837 126.89L185.804 126.529C185.472 122.803 185.123 119.08 184.801 115.353C184.508 111.955 184.254 108.537 184.12 105.124L184.058 103.403C183.928 99.9316 183.753 96.4099 183.884 92.9556ZM130.923 64.1153C138.271 59.763 146.716 58.2052 154.894 59.6659C162.756 61.0701 169.971 65.6854 175.364 72.3031C177.997 75.5342 180.334 79.2716 181.828 83.3546C182.569 85.383 183.15 87.499 183.46 89.6721C183.619 90.7894 183.775 91.9469 183.805 93.0796C183.833 94.1283 183.562 95.1118 183.594 96.1779C183.599 96.3447 183.374 96.3768 183.34 96.217C183.085 95.0283 182.469 94.1295 182.083 93.0004C181.794 92.1574 181.467 91.3343 181.134 90.5138L180.847 89.8107C180.016 87.7671 179.023 85.8075 178.04 83.855C176.061 79.9223 173.521 76.3483 170.548 73.3325C165.327 68.0376 158.629 64.6198 151.639 64.0043C144.383 63.3652 137.024 65.3327 130.827 69.6912C124.631 74.0494 119.946 80.8242 117.514 88.6246C116.287 92.5609 115.609 96.6623 115.451 100.832C115.371 102.943 115.446 105.072 115.576 107.179L115.641 108.183C115.716 109.388 115.768 110.588 115.61 111.764C116.727 111.367 117.899 111.203 119.075 111.399C120.822 111.691 121.866 112.506 122.649 114.282C122.69 114.374 122.608 114.467 122.527 114.421C121.511 113.844 119.867 114.148 118.791 114.45C117.671 114.765 116.663 115.312 115.711 116.052C113.951 117.42 112.571 119.541 112.233 121.973C111.905 124.323 112.753 126.703 114.178 128.387C114.911 129.254 115.787 130.004 116.768 130.471C117.959 131.039 119.138 131.021 120.191 131.958C120.843 132.537 120.685 133.528 120.244 134.171C122.466 136.943 124.437 139.977 126.66 142.76C127.69 144.051 128.712 145.342 129.699 146.674L130.068 147.175C131.053 148.529 132.621 149.958 133.072 151.66C133.352 152.719 132.355 154.104 131.348 153.622C129.802 152.881 128.699 150.955 127.655 149.478L127.587 149.382C126.492 147.851 125.52 146.235 124.631 144.541L124.338 143.984C122.731 140.908 121.137 137.718 120.113 134.34C120.045 134.419 119.973 134.491 119.898 134.552C118.421 135.747 116.275 134.828 114.8 134.053C113.408 133.321 112.132 132.219 111.137 130.891C108.973 128.004 107.976 124.265 108.699 120.518C109.311 117.344 111.244 114.256 113.779 112.651C112.609 111.118 112.125 109.052 111.802 107.032C111.391 104.454 111.309 101.812 111.42 99.197C111.643 93.9893 112.821 88.8559 114.643 84.0871C117.901 75.5545 123.661 68.417 130.923 64.1153ZM115.457 121.054C116.999 120.725 118.436 120.646 119.924 121.388C121.538 122.194 122.673 123.525 123.729 125.083C124.93 126.856 121.852 128.793 121.075 126.439L121.053 126.367C120.845 125.67 120.472 124.996 120.001 124.376C119.859 124.623 119.67 124.84 119.448 124.965C119.179 125.115 118.767 125.011 118.703 124.62C118.631 124.185 118.71 123.659 118.931 123.292L118.961 123.241V123.241C117.891 122.262 116.603 121.546 115.457 121.316C115.342 121.293 115.344 121.078 115.457 121.054Z" fill="black"/>
  <path fill-rule="evenodd" clip-rule="evenodd" d="M173.081 141.392C172.381 142.434 171.114 143.231 169.694 143.613C168.341 143.976 166.846 143.961 165.556 143.402L165.445 143.352C164.481 142.896 163.555 141.976 163.203 141.015C163.063 140.633 163.016 140.245 163.112 139.883C163.198 139.557 163.399 139.257 163.736 139C163.841 138.919 163.983 138.913 164.117 138.94C164.285 138.974 164.45 139.063 164.549 139.183C165.101 139.851 165.902 140.502 166.85 140.491C167.581 140.482 168.178 140.154 168.758 139.782L169.165 139.517C169.557 139.262 169.956 139.023 170.406 138.913C171.213 138.717 172.191 139.075 172.787 139.666C173.047 139.924 173.236 140.226 173.287 140.553C173.33 140.826 173.27 141.112 173.081 141.392ZM168.889 123.181C170.491 124.289 172.932 126.872 171.208 129.618C169.18 132.04 166.259 129.263 164.82 128.008C163.485 127.034 161.986 129.537 163.224 130.674C173.624 139.434 177.845 123.47 169.699 121.878C168.802 121.703 168.469 122.838 168.889 123.181ZM150.815 106.154L151.275 106.01L151.745 105.866L152.062 105.771C154.242 105.122 156.646 104.551 158.808 104.829C159.596 104.931 160.236 105.436 160.347 106.376C160.441 107.168 159.991 108.191 159.224 108.332C156.686 108.8 154.087 108.648 151.536 109.13C150.266 109.369 149.006 109.667 147.74 109.935C146.778 110.139 145.784 110.211 144.814 110.376L145.037 110.411C145.115 110.423 145.095 110.573 145.018 110.567C144.699 110.53 144.378 110.525 144.057 110.55L143.92 110.563C143.71 110.597 143.587 110.312 143.774 110.168C144.956 109.255 145.959 108.266 147.283 107.594C148.428 107.012 149.606 106.532 150.815 106.154ZM170.659 104.754C172.335 102.827 175.899 103.568 177.893 104.449C179.031 104.953 180.113 105.589 181.014 106.541L181.102 106.635L181.237 106.783C181.845 107.461 182.524 108.393 182.427 109.37C182.412 109.519 182.341 109.689 182.193 109.719C181.395 109.88 180.61 109.401 179.873 109.112L179.385 108.921C178.651 108.637 177.913 108.366 177.157 108.17C176.217 107.926 175.258 107.786 174.292 107.8C173.317 107.814 172.269 108.127 171.339 107.687C170.303 107.195 169.765 105.782 170.659 104.754ZM154.102 120.3C153.674 120.796 153.109 121.077 152.387 120.91C151.822 120.78 150.747 120.134 149.888 119.139C149.3 118.458 148.808 117.607 148.675 116.622C148.644 116.393 148.537 116.247 148.397 116.154C148.286 116.081 148.14 116.045 147.981 116.063C147.846 116.078 147.703 116.134 147.592 116.208C147.382 116.348 147.296 116.547 147.278 116.696C147.109 118.13 147.596 119.554 148.355 120.754C149.38 122.373 150.885 123.56 151.769 123.838C153.282 124.314 154.877 123.935 156.053 122.737C156.993 121.779 157.475 120.53 157.922 119.247L158.008 118.998C158.109 118.707 158.209 118.417 158.314 118.131C158.526 117.558 158.458 117.063 158.253 116.676C158.025 116.249 157.605 115.947 157.137 115.855C156.705 115.769 156.242 115.863 155.877 116.163C155.568 116.417 155.32 116.819 155.231 117.414C155.087 118.381 154.754 119.491 154.166 120.223L154.102 120.3ZM180.053 114.703C179.7 114.494 179.424 114.431 179.033 114.564C178.817 114.638 178.603 114.78 178.435 114.97C178.27 115.159 178.15 115.393 178.103 115.654C177.989 116.296 177.68 116.898 177.24 117.29C176.863 117.625 176.388 117.803 175.861 117.702C175.292 117.594 174.751 117.18 174.378 116.69C174.274 116.554 174.188 116.402 174.106 116.248L174.057 116.156C173.873 115.811 173.694 115.49 173.441 115.236C173.345 115.14 173.2 115.073 173.059 115.073C173.002 115.073 172.945 115.084 172.889 115.103C172.323 115.749 172.215 116.24 172.233 116.726C172.252 117.236 172.429 117.752 172.714 118.234C173.384 119.364 174.656 120.29 175.514 120.5C176.69 120.788 177.857 120.443 178.793 119.696C179.756 118.927 180.469 117.734 180.692 116.39C180.745 116.066 180.723 115.716 180.614 115.413C180.508 115.117 180.324 114.863 180.053 114.703Z" fill="black"/>
  <path fill-rule="evenodd" clip-rule="evenodd" d="M187.875 124.651C185.299 127.678 181 128.547 177.573 126.923C168.774 122.741 173.08 109.696 179.866 106.192C180.714 105.952 181.846 105.382 182.879 105.252C182.972 105.2 183.176 105.351 183.422 105.208C190.904 106.159 192.608 119.374 187.875 124.651M159.494 125.425C156.605 129.785 151.235 131.129 146.847 129.103C138.178 125.219 141.252 113.651 147.183 109.116C159.712 103.76 164.886 117.388 159.494 125.425M140.702 115.767C140.694 115.763 140.686 115.761 140.677 115.756C140.723 115.733 140.769 115.71 140.815 115.687C140.8 115.731 140.784 115.775 140.769 115.819C140.747 115.801 140.727 115.781 140.702 115.767M193.839 111.055C193.131 111.057 192.11 111.189 191.524 111.747C190.08 106.207 184.751 101.08 180.116 104.819C176.466 106.154 173.757 109.116 172.218 113.053C169.442 111.175 165.078 111.977 162.671 114.461C161.095 108.535 157.215 106.46 152.598 106.154C147.558 105.215 142.535 110.783 140.968 115.25C139.664 115.082 137.717 114.61 136.491 115.525C128.534 113.151 114.623 111.842 113.005 113.161C111.852 113.664 111.219 116.76 112.83 116.927C114.233 116.7 112.666 114.659 114.08 114.436C121.616 113.904 128.932 115.631 136.389 116.356C137.054 117.374 139.205 117.715 140.353 117.306C138.546 124.883 142.447 130.039 148.293 131.583C157.344 133.949 165.22 124.736 162.853 115.155C165.595 113.603 168.749 113.669 171.736 114.487C166.744 135.386 196.33 134.448 191.709 112.463C194.784 114.203 195.452 111.406 193.839 111.055" fill="black"/>
</svg>
