<svg xmlns="http://www.w3.org/2000/svg" viewBox="0 0 47 17">
  <path d="M4.86 3.27H2.68L.53 4.6v2l1.9-1.14h.06V12h2.37V3.27zm4 8.85c2.13 0 3.64-1.09 3.63-2.63 0-1.07-.7-1.82-2.11-1.97v-.07c1.04-.11 1.8-.78 1.79-1.76 0-1.47-1.36-2.54-3.3-2.54-1.97 0-3.38 1.13-3.39 2.73h2.27c.01-.53.47-.9 1.13-.9.6 0 1.01.36 1 .87.01.52-.48.9-1.2.9H7.8v1.64h.89c.77 0 1.3.37 1.3.9 0 .54-.46.92-1.11.92-.69 0-1.17-.36-1.18-.87H5.31c.01 1.63 1.48 2.78 3.55 2.78zm7.77-8.85h-2.19L12.3 4.6v2l1.9-1.14h.06V12h2.37V3.27zm4 8.85c2.13 0 3.64-1.09 3.63-2.63 0-1.07-.71-1.82-2.12-1.97v-.07c1.04-.11 1.8-.78 1.8-1.76 0-1.47-1.36-2.54-3.3-2.54-1.97 0-3.38 1.13-3.39 2.73h2.27c0-.53.47-.9 1.12-.9.6 0 1.02.36 1.01.87 0 .52-.49.9-1.2.9h-.88v1.64h.89c.76 0 1.3.37 1.3.9 0 .54-.46.92-1.12.92-.68 0-1.16-.36-1.17-.87h-2.39c.01 1.63 1.48 2.78 3.55 2.78zM27.13 3.27h-1.27V12h1.27V3.27zm3.02 8.87c1.08 0 1.7-.54 1.93-1.03h.06V12h1.24V7.65c0-1.9-1.5-2.28-2.54-2.28-1.18 0-2.28.48-2.7 1.67l1.2.27c.18-.46.66-.9 1.52-.9.82 0 1.24.42 1.24 1.16v.03c0 .47-.48.46-1.65.6-1.24.14-2.51.46-2.51 1.95 0 1.29.97 2 2.21 2zm.28-1.02c-.72 0-1.24-.32-1.24-.95 0-.68.6-.93 1.34-1.03.41-.05 1.4-.16 1.58-.34v.84c0 .77-.62 1.48-1.68 1.48zm4.15.88h1.24v-1.02h.11a2 2 0 001.9 1.15c1.58 0 2.73-1.27 2.73-3.39s-1.17-3.37-2.75-3.37c-1.22 0-1.65.74-1.88 1.15h-.08V3.27h-1.27V12zm1.25-3.27c0-1.37.6-2.28 1.7-2.28 1.16 0 1.74.98 1.74 2.28 0 1.31-.6 2.31-1.73 2.31-1.1 0-1.71-.94-1.71-2.31zm10.46-1.68c-.26-1.02-1.06-1.68-2.47-1.68-1.48 0-2.53.78-2.53 1.94 0 .93.56 1.55 1.8 1.82l1.1.24c.63.14.92.42.92.83 0 .5-.54.9-1.37.9-.77 0-1.26-.32-1.4-.97l-1.24.2c.21 1.15 1.18 1.8 2.65 1.8 1.58 0 2.67-.84 2.67-2.02 0-.93-.59-1.5-1.79-1.77L43.6 8.1c-.72-.17-1.03-.42-1.02-.86 0-.5.54-.86 1.26-.86.8 0 1.16.44 1.3.88l1.16-.2z" />
</svg>
